<?xml version="1.0" encoding="UTF-8"?>
<svg width="255px" height="320px" viewBox="0 0 255 320" version="1.1" xmlns="http://www.w3.org/2000/svg" xmlns:xlink="http://www.w3.org/1999/xlink">
    <!-- Generator: Sketch 43.1 (39012) - http://www.bohemiancoding.com/sketch -->
    <title>4</title>
    <desc>Created with Sketch.</desc>
    <defs></defs>
    <g id="三期" stroke="none" stroke-width="1" fill="none" fill-rule="evenodd">
        <g id="任务" transform="translate(-879.000000, -874.000000)" fill="#A6A6A6">
            <g id="Group-5" transform="translate(481.000000, 850.000000)">
                <path d="M477.752322,304.866873 L514.408669,303.380805 C515.399381,303.380805 516.390093,301.894737 516.390093,300.904025 C518.866873,287.529412 520.848297,274.154799 523.325077,261.770898 C507.96904,261.770898 431.684211,262.266254 414.842105,262.266254 C408.897833,246.910217 402.458204,228.086687 398,211.739938 C420.291022,184.990712 443.572755,158.241486 472.798762,124.557276 C513.417957,79.9752322 542.643963,48.2724458 566.421053,24 C591.188854,24 615.4613,24.9907121 637.256966,26.4767802 C628.340557,79.4798762 614.965944,152.79257 604.068111,213.226006 C619.919505,213.226006 643.696594,213.226006 652.613003,212.73065 C650.136223,227.095975 646.668731,243.93808 643.201238,258.798762 L596.142415,258.798762 C593.665635,272.668731 590.693498,289.01548 588.216718,303.380805 L620.910217,304.371517 C618.928793,317.250774 616.452012,330.130031 613.479876,343.504644 L538.185759,343.504644 C517.380805,343.504644 492.613003,344 470.321981,344 C472.303406,331.120743 474.780186,317.250774 477.752322,304.866873 Z M531.74613,213.721362 L554.037152,98.7987616 L551.065015,98.3034056 C530.755418,121.585139 520.848297,134.464396 501.529412,157.250774 C484.687307,178.551084 476.76161,187.962848 459.919505,209.758514 C458.928793,211.244582 459.919505,213.226006 460.910217,213.226006 C482.705882,213.721362 519.857585,213.721362 531.74613,213.721362 Z" id="4"></path>
            </g>
        </g>
    </g>
</svg>