<?xml version="1.0" encoding="UTF-8"?>
<svg width="245px" height="320px" viewBox="0 0 245 320" version="1.1" xmlns="http://www.w3.org/2000/svg" xmlns:xlink="http://www.w3.org/1999/xlink">
    <!-- Generator: Sketch 43.1 (39012) - http://www.bohemiancoding.com/sketch -->
    <title>5</title>
    <desc>Created with Sketch.</desc>
    <defs></defs>
    <g id="三期" stroke="none" stroke-width="1" fill="none" fill-rule="evenodd">
        <g id="任务" transform="translate(-1005.000000, -874.000000)" fill="#A6A6A6">
            <g id="Group-5" transform="translate(481.000000, 850.000000)">
                <path d="M573.689441,247.602484 C557.291925,248.596273 539.403727,251.080745 524,254.062112 C524,281.888199 524.496894,311.204969 524.993789,339.52795 C539.403727,342.509317 562.26087,344 586.608696,344 C631.826087,344 664.124224,335.055901 690.956522,318.161491 C719.279503,300.770186 742.63354,267.975155 742.63354,223.751553 C742.63354,173.565217 705.863354,132.322981 634.807453,132.322981 C628.84472,132.322981 620.397516,132.322981 610.956522,132.819876 C616.42236,114.931677 621.391304,99.0310559 625.863354,84.1242236 C655.180124,84.621118 704.869565,85.6149068 756.049689,85.6149068 C761.515528,66.2360248 765.987578,42.8819876 768.968944,24 C737.664596,24.4968944 712.819876,24.4968944 680.024845,24.4968944 L588.099379,24.4968944 C574.68323,72.6956522 556.298137,140.273292 544.372671,186.484472 L549.341615,192.944099 C558.782609,191.950311 579.652174,190.459627 592.571429,190.459627 C637.78882,190.459627 663.130435,211.329193 663.130435,241.639752 C663.130435,265.490683 654.68323,277.913043 644.248447,286.857143 C634.310559,295.801242 616.42236,299.279503 603.503106,299.279503 C597.540373,299.279503 588.596273,297.78882 582.63354,294.807453 C581.142857,293.813665 579.652174,292.322981 579.652174,289.838509 L573.689441,247.602484 Z" id="5"></path>
            </g>
        </g>
    </g>
</svg>