<?xml version="1.0" encoding="UTF-8"?>
<svg width="321px" height="289px" viewBox="0 0 321 289" version="1.1" xmlns="http://www.w3.org/2000/svg" xmlns:xlink="http://www.w3.org/1999/xlink">
    <!-- Generator: Sketch 42 (36781) - http://www.bohemiancoding.com/sketch -->
    <title>icon-game</title>
    <desc>Created with Sketch.</desc>
    <defs></defs>
    <g id="Page-1" stroke="none" stroke-width="1" fill="none" fill-rule="evenodd">
        <g id="icon-game" transform="translate(-1.000000, 0.000000)" fill-rule="nonzero" fill="#7D7E7E">
            <g id="Group">
                <circle id="Oval" cx="101" cy="160" r="20"></circle>
                <circle id="Oval" cx="221" cy="160" r="20"></circle>
                <path d="M176,64.6 L176,50 C176,39 185,30 196.1,30 L261,30 L261,0 L196.1,0 C168.4,0 146,22.4 146,50 L146,64.6 C150.5,66.3 154.9,67 161,67 C167.1,67 171.5,66.3 176,64.6 Z" id="Shape"></path>
                <path d="M315.4,181.9 C302.6,125.5 273.7,76.3 242.4,68.4 C222.6,63.4 210.6,66 195.2,75.3 C194.3,75.9 192.9,76.7 190.8,78 C180,84.6 173,87.1 160.9,87.1 C148.8,87.1 141.7,84.6 131,78 C128.8,76.7 127.5,75.9 126.6,75.3 C111.2,66 99.2,63.4 79.4,68.4 C48.4,76.3 19.6,125.3 6.8,181.7 C-7,242.2 3,288.9 42.6,288.1 C52.3,287.9 60.8,284.4 69.9,277.8 C74.6,274.3 90.7,260.4 92.1,259.4 C112.3,243 131.5,235.1 161,235.1 C190.4,235.1 209.3,242.9 229.4,259.4 C231.2,260.8 245.3,273.1 249.5,276.3 C259.6,284 268.6,287.9 279.4,288.2 C318.9,289.1 329.1,242.4 315.4,181.9 Z M279.9,258.1 C276.4,258 272.9,256.5 267.5,252.3 C264.3,249.8 250.7,238.1 248.3,236.1 C223.2,215.5 197.9,205 160.9,205 C124,205 98.3,215.6 73.1,236 C70.9,237.8 55.7,250.9 52.2,253.5 C47.6,256.8 44.7,258.1 41.9,258.1 C31.7,258.3 26,231.9 36,188.3 C46.5,142.1 70.2,101.6 86.7,97.5 C97.9,94.7 102,95.5 110.9,101 C111.7,101.5 112.9,102.2 115.2,103.7 C130.3,112.9 142.3,117.2 160.8,117.2 C179.3,117.2 191.3,112.9 206.4,103.7 C208.7,102.3 209.9,101.5 210.7,101 C219.7,95.6 223.7,94.7 234.9,97.5 C251.8,101.8 275.6,142.2 286,188.5 C296,232.1 290.2,258.4 279.9,258.1 Z" id="Shape"></path>
            </g>
        </g>
    </g>
</svg>